ffmpeg started on 2026-04-09 at 15:21:14
Report written to "D:\Convert\FFMetrics\reports\psnr_report-6.txt"
Log level: 32
Command line:
ffmpeg -hide_banner -nostdin -r 24000/1001 -i "F:\\Convert\\files\\[DC] Make Heroine ga Oosugiru - 07_Telegram_HEVC(319).mkv" -r 24000/1001 -i "F:\\Convert\\files\\[DC] Make Heroine ga Oosugiru - 07_Telegram.mp4" -lavfi "[0:v]settb=AVTB,setpts=PTS-STARTPTS,format=pix_fmts=yuv420p10le,fps=24000/1001,scale=1920:1080:flags=lanczos:param0=3:out_range=limited:out_color_matrix=bt709:out_chroma_loc=left,setsar=1/1,setdar=(1920/1080)*(1/1),colorspace=format=yuv420p10:range=tv:primaries=bt709:trc=bt709:space=bt709:fast=0[main];[1:v]settb=AVTB,setpts=PTS-STARTPTS,format=pix_fmts=yuv420p,fps=24000/1001,scale=1920:1080:flags=lanczos:param0=3:out_range=limited:out_color_matrix=bt709:out_chroma_loc=left,setsar=1/1,setdar=(1920/1080)*(1/1),colorspace=format=yuv420p:range=tv:primaries=bt709:trc=bt709:space=bt709:fast=0[ref];[main][ref]psnr=eof_action=endall:stats_file='D\\:/Convert/FFMetrics/logs/psnr_logfile-6.txt'" -f null -
Input #0, matroska,webm, from 'F:\Convert\files\[DC] Make Heroine ga Oosugiru - 07_Telegram_HEVC(319).mkv':
  Metadata:
    COMPATIBLE_BRANDS: isomiso2avc1mp41
    MAJOR_BRAND     : isom
    MINOR_VERSION   : 512
    ENCODER         : Lavf61.7.100
  Duration: 00:24:06.79, start: -0.021000, bitrate: 975 kb/s
  Stream #0:0: Video: hevc (Main 10), yuv420p10le(tv, bt709, progressive), 1920x1080 [SAR 1:1 DAR 16:9], 23.98 fps, 23.98 tbr, 1k tbn (default)
      Metadata:
        HANDLER_NAME    : VideoHandler
        VENDOR_ID       : [0][0][0][0]
        ENCODER         : Lavc61.19.100 libx265
        BPS             : 778123
        DURATION        : 00:24:06.569708333
        NUMBER_OF_FRAMES: 34683
        NUMBER_OF_BYTES : 140701091
        _STATISTICS_WRITING_APP: mkvpropedit v94.0 ('Initiate') 64-bit
        _STATISTICS_WRITING_DATE_UTC: 2026-04-09 10:14:09
        _STATISTICS_TAGS: BPS DURATION NUMBER_OF_FRAMES NUMBER_OF_BYTES
  Stream #0:1: Audio: aac (LC), 48000 Hz, stereo, fltp (default)
      Metadata:
        HANDLER_NAME    : SoundHandler
        VENDOR_ID       : [0][0][0][0]
        ENCODER         : Lavc61.19.100 aac
        BPS             : 193194
        DURATION        : 00:24:06.784000000
        NUMBER_OF_FRAMES: 67819
        NUMBER_OF_BYTES : 34938755
        _STATISTICS_WRITING_APP: mkvpropedit v94.0 ('Initiate') 64-bit
        _STATISTICS_WRITING_DATE_UTC: 2026-04-09 10:14:09
        _STATISTICS_TAGS: BPS DURATION NUMBER_OF_FRAMES NUMBER_OF_BYTES
Input #1, mov,mp4,m4a,3gp,3g2,mj2, from 'F:\Convert\files\[DC] Make Heroine ga Oosugiru - 07_Telegram.mp4':
  Metadata:
    major_brand     : isom
    minor_version   : 512
    compatible_brands: isomiso2avc1mp41
    encoder         : Lavf60.16.100
  Duration: 00:24:06.74, start: 0.000000, bitrate: 3764 kb/s
  Stream #1:0[0x1](und): Video: h264 (High) (avc1 / 0x31637661), yuv420p(tv, bt709, progressive), 1920x1080 [SAR 1:1 DAR 16:9], 3616 kb/s, 23.98 fps, 23.98 tbr, 24k tbn (default)
      Metadata:
        handler_name    : VideoHandler
        vendor_id       : [0][0][0][0]
        encoder         : Lavc60.31.102 h264_qsv
  Stream #1:1[0x2](und): Audio: aac (HE-AACv2) (mp4a / 0x6134706D), 48000 Hz, stereo, fltp, 144 kb/s (default)
      Metadata:
        handler_name    : SoundHandler
        vendor_id       : [0][0][0][0]
Stream mapping:
  Stream #0:0 (hevc) -> settb:default
  Stream #1:0 (h264) -> settb:default
  psnr:default -> Stream #0:0 (wrapped_avframe)
  Stream #0:1 -> #0:1 (aac (native) -> pcm_s16le (native))
Output #0, null, to 'pipe:':
  Metadata:
    COMPATIBLE_BRANDS: isomiso2avc1mp41
    MAJOR_BRAND     : isom
    MINOR_VERSION   : 512
    encoder         : Lavf61.7.100
  Stream #0:0: Video: wrapped_avframe, yuv420p10le(tv, bt709, progressive), 1920x1080 [SAR 1:1 DAR 16:9], q=2-31, 200 kb/s, 23.98 fps, 23.98 tbn
      Metadata:
        encoder         : Lavc61.19.100 wrapped_avframe
  Stream #0:1: Audio: pcm_s16le, 48000 Hz, stereo, s16, 1536 kb/s (default)
      Metadata:
        HANDLER_NAME    : SoundHandler
        VENDOR_ID       : [0][0][0][0]
        _STATISTICS_TAGS: BPS DURATION NUMBER_OF_FRAMES NUMBER_OF_BYTES
        BPS             : 193194
        DURATION        : 00:24:06.784000000
        NUMBER_OF_FRAMES: 67819
        NUMBER_OF_BYTES : 34938755
        _STATISTICS_WRITING_APP: mkvpropedit v94.0 ('Initiate') 64-bit
        _STATISTICS_WRITING_DATE_UTC: 2026-04-09 10:14:09
        encoder         : Lavc61.19.100 pcm_s16le
frame=  110 fps=0.0 q=-0.0 size=N/A time=00:00:04.58 bitrate=N/A speed=   9x    frame=  278 fps=272 q=-0.0 size=N/A time=00:00:11.59 bitrate=N/A speed=11.4x    frame=  458 fps=299 q=-0.0 size=N/A time=00:00:19.10 bitrate=N/A speed=12.5x    frame=  643 fps=312 q=-0.0 size=N/A time=00:00:26.81 bitrate=N/A speed=  13x    frame=  815 fps=317 q=-0.0 size=N/A time=00:00:33.99 bitrate=N/A speed=13.2x    frame=  947 fps=307 q=-0.0 size=N/A time=00:00:39.49 bitrate=N/A speed=12.8x    frame= 1096 fps=305 q=-0.0 size=N/A time=00:00:45.71 bitrate=N/A speed=12.7x    frame= 1243 fps=302 q=-0.0 size=N/A time=00:00:51.84 bitrate=N/A speed=12.6x    frame= 1394 fps=301 q=-0.0 size=N/A time=00:00:58.14 bitrate=N/A speed=12.5x    frame= 1534 fps=298 q=-0.0 size=N/A time=00:01:03.98 bitrate=N/A speed=12.4x    frame= 1666 fps=294 q=-0.0 size=N/A time=00:01:09.48 bitrate=N/A speed=12.3x    frame= 1817 fps=294 q=-0.0 size=N/A time=00:01:15.78 bitrate=N/A speed=12.3x    frame= 1964 fps=293 q=-0.0 size=N/A time=00:01:21.91 bitrate=N/A speed=12.2x    frame= 2084 fps=289 q=-0.0 size=N/A time=00:01:26.92 bitrate=N/A speed=  12x    frame= 2214 fps=286 q=-0.0 size=N/A time=00:01:32.34 bitrate=N/A speed=11.9x    frame= 2358 fps=286 q=-0.0 size=N/A time=00:01:38.34 bitrate=N/A speed=11.9x    frame= 2483 fps=283 q=-0.0 size=N/A time=00:01:43.56 bitrate=N/A speed=11.8x    frame= 2619 fps=282 q=-0.0 size=N/A time=00:01:49.23 bitrate=N/A speed=11.8x    frame= 2787 fps=284 q=-0.0 size=N/A time=00:01:56.24 bitrate=N/A speed=11.9x    frame= 2946 fps=286 q=-0.0 size=N/A time=00:02:02.87 bitrate=N/A speed=11.9x    frame= 3122 fps=288 q=-0.0 size=N/A time=00:02:10.21 bitrate=N/A speed=  12x    frame= 3298 fps=291 q=-0.0 size=N/A time=00:02:17.55 bitrate=N/A speed=12.1x    frame= 3478 fps=293 q=-0.0 size=N/A time=00:02:25.06 bitrate=N/A speed=12.2x    frame= 3654 fps=295 q=-0.0 size=N/A time=00:02:32.40 bitrate=N/A speed=12.3x    frame= 3835 fps=298 q=-0.0 size=N/A time=00:02:39.95 bitrate=N/A speed=12.4x    frame= 4022 fps=300 q=-0.0 size=N/A time=00:02:47.75 bitrate=N/A speed=12.5x    frame= 4197 fps=302 q=-0.0 size=N/A time=00:02:55.04 bitrate=N/A speed=12.6x    frame= 4374 fps=303 q=-0.0 size=N/A time=00:03:02.43 bitrate=N/A speed=12.6x    frame= 4549 fps=305 q=-0.0 size=N/A time=00:03:09.73 bitrate=N/A speed=12.7x    frame= 4732 fps=306 q=-0.0 size=N/A time=00:03:17.36 bitrate=N/A speed=12.8x    frame= 4909 fps=307 q=-0.0 size=N/A time=00:03:24.74 bitrate=N/A speed=12.8x    frame= 5091 fps=309 q=-0.0 size=N/A time=00:03:32.33 bitrate=N/A speed=12.9x    frame= 5271 fps=310 q=-0.0 size=N/A time=00:03:39.84 bitrate=N/A speed=12.9x    frame= 5448 fps=311 q=-0.0 size=N/A time=00:03:47.22 bitrate=N/A speed=  13x    frame= 5633 fps=312 q=-0.0 size=N/A time=00:03:54.94 bitrate=N/A speed=  13x    frame= 5807 fps=313 q=-0.0 size=N/A time=00:04:02.20 bitrate=N/A speed=13.1x    frame= 5991 fps=314 q=-0.0 size=N/A time=00:04:09.87 bitrate=N/A speed=13.1x    frame= 6170 fps=315 q=-0.0 size=N/A time=00:04:17.34 bitrate=N/A speed=13.1x    frame= 6348 fps=316 q=-0.0 size=N/A time=00:04:24.76 bitrate=N/A speed=13.2x    frame= 6531 fps=317 q=-0.0 size=N/A time=00:04:32.39 bitrate=N/A speed=13.2x    frame= 6710 fps=318 q=-0.0 size=N/A time=00:04:39.86 bitrate=N/A speed=13.2x    frame= 6896 fps=319 q=-0.0 size=N/A time=00:04:47.62 bitrate=N/A speed=13.3x    frame= 7065 fps=319 q=-0.0 size=N/A time=00:04:54.66 bitrate=N/A speed=13.3x    frame= 7255 fps=320 q=-0.0 size=N/A time=00:05:02.59 bitrate=N/A speed=13.3x    frame= 7429 fps=320 q=-0.0 size=N/A time=00:05:09.85 bitrate=N/A speed=13.4x    frame= 7603 fps=321 q=-0.0 size=N/A time=00:05:17.10 bitrate=N/A speed=13.4x    frame= 7771 fps=321 q=-0.0 size=N/A time=00:05:24.11 bitrate=N/A speed=13.4x    frame= 7943 fps=321 q=-0.0 size=N/A time=00:05:31.28 bitrate=N/A speed=13.4x    frame= 8115 fps=321 q=-0.0 size=N/A time=00:05:38.46 bitrate=N/A speed=13.4x    frame= 8296 fps=322 q=-0.0 size=N/A time=00:05:46.01 bitrate=N/A speed=13.4x    frame= 8469 fps=322 q=-0.0 size=N/A time=00:05:53.22 bitrate=N/A speed=13.4x    frame= 8643 fps=322 q=-0.0 size=N/A time=00:06:00.48 bitrate=N/A speed=13.4x    frame= 8793 fps=322 q=-0.0 size=N/A time=00:06:06.74 bitrate=N/A speed=13.4x    frame= 8973 fps=322 q=-0.0 size=N/A time=00:06:14.24 bitrate=N/A speed=13.4x    frame= 9153 fps=323 q=-0.0 size=N/A time=00:06:21.75 bitrate=N/A speed=13.5x    frame= 9335 fps=323 q=-0.0 size=N/A time=00:06:29.34 bitrate=N/A speed=13.5x    frame= 9511 fps=324 q=-0.0 size=N/A time=00:06:36.68 bitrate=N/A speed=13.5x    frame= 9687 fps=324 q=-0.0 size=N/A time=00:06:44.02 bitrate=N/A speed=13.5x    frame= 9861 fps=324 q=-0.0 size=N/A time=00:06:51.28 bitrate=N/A speed=13.5x    frame=10029 fps=324 q=-0.0 size=N/A time=00:06:58.29 bitrate=N/A speed=13.5x    frame=10212 fps=325 q=-0.0 size=N/A time=00:07:05.92 bitrate=N/A speed=13.5x    frame=10389 fps=325 q=-0.0 size=N/A time=00:07:13.30 bitrate=N/A speed=13.5x    frame=10561 fps=325 q=-0.0 size=N/A time=00:07:20.48 bitrate=N/A speed=13.6x    frame=10738 fps=325 q=-0.0 size=N/A time=00:07:27.86 bitrate=N/A speed=13.6x    frame=10914 fps=326 q=-0.0 size=N/A time=00:07:35.20 bitrate=N/A speed=13.6x    frame=11080 fps=326 q=-0.0 size=N/A time=00:07:42.12 bitrate=N/A speed=13.6x    frame=11253 fps=326 q=-0.0 size=N/A time=00:07:49.34 bitrate=N/A speed=13.6x    frame=11424 fps=326 q=-0.0 size=N/A time=00:07:56.47 bitrate=N/A speed=13.6x    frame=11606 fps=326 q=-0.0 size=N/A time=00:08:04.06 bitrate=N/A speed=13.6x    frame=11773 fps=326 q=-0.0 size=N/A time=00:08:11.03 bitrate=N/A speed=13.6x    frame=11954 fps=326 q=-0.0 size=N/A time=00:08:18.58 bitrate=N/A speed=13.6x    frame=12125 fps=327 q=-0.0 size=N/A time=00:08:25.71 bitrate=N/A speed=13.6x    frame=12311 fps=327 q=-0.0 size=N/A time=00:08:33.47 bitrate=N/A speed=13.6x    frame=12492 fps=327 q=-0.0 size=N/A time=00:08:41.02 bitrate=N/A speed=13.6x    frame=12677 fps=328 q=-0.0 size=N/A time=00:08:48.73 bitrate=N/A speed=13.7x    frame=12857 fps=328 q=-0.0 size=N/A time=00:08:56.24 bitrate=N/A speed=13.7x    frame=13033 fps=328 q=-0.0 size=N/A time=00:09:03.58 bitrate=N/A speed=13.7x    frame=13208 fps=328 q=-0.0 size=N/A time=00:09:10.88 bitrate=N/A speed=13.7x    frame=13383 fps=328 q=-0.0 size=N/A time=00:09:18.18 bitrate=N/A speed=13.7x    frame=13553 fps=329 q=-0.0 size=N/A time=00:09:25.27 bitrate=N/A speed=13.7x    frame=13732 fps=329 q=-0.0 size=N/A time=00:09:32.73 bitrate=N/A speed=13.7x    frame=13910 fps=329 q=-0.0 size=N/A time=00:09:40.16 bitrate=N/A speed=13.7x    frame=14077 fps=329 q=-0.0 size=N/A time=00:09:47.12 bitrate=N/A speed=13.7x    frame=14243 fps=329 q=-0.0 size=N/A time=00:09:54.05 bitrate=N/A speed=13.7x    frame=14422 fps=329 q=-0.0 size=N/A time=00:10:01.51 bitrate=N/A speed=13.7x    frame=14598 fps=329 q=-0.0 size=N/A time=00:10:08.85 bitrate=N/A speed=13.7x    frame=14765 fps=329 q=-0.0 size=N/A time=00:10:15.82 bitrate=N/A speed=13.7x    frame=14942 fps=329 q=-0.0 size=N/A time=00:10:23.20 bitrate=N/A speed=13.7x    frame=15104 fps=329 q=-0.0 size=N/A time=00:10:29.96 bitrate=N/A speed=13.7x    frame=15262 fps=329 q=-0.0 size=N/A time=00:10:36.55 bitrate=N/A speed=13.7x    frame=15441 fps=329 q=-0.0 size=N/A time=00:10:44.01 bitrate=N/A speed=13.7x    frame=15617 fps=329 q=-0.0 size=N/A time=00:10:51.35 bitrate=N/A speed=13.7x    frame=15793 fps=329 q=-0.0 size=N/A time=00:10:58.69 bitrate=N/A speed=13.7x    frame=15970 fps=329 q=-0.0 size=N/A time=00:11:06.08 bitrate=N/A speed=13.7x    frame=16149 fps=329 q=-0.0 size=N/A time=00:11:13.54 bitrate=N/A speed=13.7x    frame=16327 fps=330 q=-0.0 size=N/A time=00:11:20.97 bitrate=N/A speed=13.8x    frame=16500 fps=330 q=-0.0 size=N/A time=00:11:28.18 bitrate=N/A speed=13.8x    frame=16680 fps=330 q=-0.0 size=N/A time=00:11:35.69 bitrate=N/A speed=13.8x    frame=16854 fps=330 q=-0.0 size=N/A time=00:11:42.95 bitrate=N/A speed=13.8x    frame=17022 fps=330 q=-0.0 size=N/A time=00:11:49.95 bitrate=N/A speed=13.8x    frame=17180 fps=330 q=-0.0 size=N/A time=00:11:56.54 bitrate=N/A speed=13.8x    frame=17345 fps=330 q=-0.0 size=N/A time=00:12:03.43 bitrate=N/A speed=13.7x    frame=17510 fps=330 q=-0.0 size=N/A time=00:12:10.31 bitrate=N/A speed=13.7x    frame=17683 fps=330 q=-0.0 size=N/A time=00:12:17.52 bitrate=N/A speed=13.7x    frame=17854 fps=330 q=-0.0 size=N/A time=00:12:24.66 bitrate=N/A speed=13.7x    frame=18032 fps=330 q=-0.0 size=N/A time=00:12:32.08 bitrate=N/A speed=13.8x    frame=18203 fps=330 q=-0.0 size=N/A time=00:12:39.21 bitrate=N/A speed=13.8x    frame=18364 fps=330 q=-0.0 size=N/A time=00:12:45.93 bitrate=N/A speed=13.7x    frame=18547 fps=330 q=-0.0 size=N/A time=00:12:53.56 bitrate=N/A speed=13.8x    frame=18725 fps=330 q=-0.0 size=N/A time=00:13:00.98 bitrate=N/A speed=13.8x    frame=18912 fps=330 q=-0.0 size=N/A time=00:13:08.78 bitrate=N/A speed=13.8x    frame=19094 fps=331 q=-0.0 size=N/A time=00:13:16.37 bitrate=N/A speed=13.8x    frame=19277 fps=331 q=-0.0 size=N/A time=00:13:24.01 bitrate=N/A speed=13.8x    frame=19459 fps=331 q=-0.0 size=N/A time=00:13:31.60 bitrate=N/A speed=13.8x    frame=19640 fps=331 q=-0.0 size=N/A time=00:13:39.15 bitrate=N/A speed=13.8x    frame=19817 fps=331 q=-0.0 size=N/A time=00:13:46.53 bitrate=N/A speed=13.8x    frame=19991 fps=331 q=-0.0 size=N/A time=00:13:53.79 bitrate=N/A speed=13.8x    frame=20163 fps=331 q=-0.0 size=N/A time=00:14:00.96 bitrate=N/A speed=13.8x    frame=20315 fps=331 q=-0.0 size=N/A time=00:14:07.30 bitrate=N/A speed=13.8x    frame=20469 fps=331 q=-0.0 size=N/A time=00:14:13.72 bitrate=N/A speed=13.8x    frame=20634 fps=331 q=-0.0 size=N/A time=00:14:20.60 bitrate=N/A speed=13.8x    frame=20800 fps=331 q=-0.0 size=N/A time=00:14:27.53 bitrate=N/A speed=13.8x    frame=20986 fps=331 q=-0.0 size=N/A time=00:14:35.29 bitrate=N/A speed=13.8x    frame=21160 fps=331 q=-0.0 size=N/A time=00:14:42.54 bitrate=N/A speed=13.8x    frame=21333 fps=331 q=-0.0 size=N/A time=00:14:49.76 bitrate=N/A speed=13.8x    frame=21507 fps=331 q=-0.0 size=N/A time=00:14:57.02 bitrate=N/A speed=13.8x    frame=21689 fps=331 q=-0.0 size=N/A time=00:15:04.61 bitrate=N/A speed=13.8x    frame=21866 fps=331 q=-0.0 size=N/A time=00:15:11.99 bitrate=N/A speed=13.8x    frame=22046 fps=331 q=-0.0 size=N/A time=00:15:19.50 bitrate=N/A speed=13.8x    frame=22221 fps=331 q=-0.0 size=N/A time=00:15:26.80 bitrate=N/A speed=13.8x    frame=22393 fps=331 q=-0.0 size=N/A time=00:15:33.97 bitrate=N/A speed=13.8x    frame=22564 fps=331 q=-0.0 size=N/A time=00:15:41.10 bitrate=N/A speed=13.8x    frame=22742 fps=332 q=-0.0 size=N/A time=00:15:48.53 bitrate=N/A speed=13.8x    frame=22905 fps=331 q=-0.0 size=N/A time=00:15:55.32 bitrate=N/A speed=13.8x    frame=23087 fps=332 q=-0.0 size=N/A time=00:16:02.92 bitrate=N/A speed=13.8x    frame=23259 fps=332 q=-0.0 size=N/A time=00:16:10.09 bitrate=N/A speed=13.8x    frame=23440 fps=332 q=-0.0 size=N/A time=00:16:17.64 bitrate=N/A speed=13.8x    frame=23617 fps=332 q=-0.0 size=N/A time=00:16:25.02 bitrate=N/A speed=13.8x    frame=23804 fps=332 q=-0.0 size=N/A time=00:16:32.82 bitrate=N/A speed=13.8x    frame=23980 fps=332 q=-0.0 size=N/A time=00:16:40.16 bitrate=N/A speed=13.9x    frame=24161 fps=332 q=-0.0 size=N/A time=00:16:47.71 bitrate=N/A speed=13.9x    frame=24334 fps=332 q=-0.0 size=N/A time=00:16:54.93 bitrate=N/A speed=13.9x    frame=24518 fps=332 q=-0.0 size=N/A time=00:17:02.60 bitrate=N/A speed=13.9x    frame=24694 fps=332 q=-0.0 size=N/A time=00:17:09.94 bitrate=N/A speed=13.9x    frame=24865 fps=332 q=-0.0 size=N/A time=00:17:17.07 bitrate=N/A speed=13.9x    frame=25039 fps=333 q=-0.0 size=N/A time=00:17:24.33 bitrate=N/A speed=13.9x    frame=25223 fps=333 q=-0.0 size=N/A time=00:17:32.00 bitrate=N/A speed=13.9x    frame=25395 fps=333 q=-0.0 size=N/A time=00:17:39.18 bitrate=N/A speed=13.9x    frame=25568 fps=333 q=-0.0 size=N/A time=00:17:46.39 bitrate=N/A speed=13.9x    frame=25749 fps=333 q=-0.0 size=N/A time=00:17:53.94 bitrate=N/A speed=13.9x    frame=25906 fps=333 q=-0.0 size=N/A time=00:18:00.49 bitrate=N/A speed=13.9x    frame=26072 fps=333 q=-0.0 size=N/A time=00:18:07.41 bitrate=N/A speed=13.9x    frame=26238 fps=332 q=-0.0 size=N/A time=00:18:14.34 bitrate=N/A speed=13.9x    frame=26412 fps=333 q=-0.0 size=N/A time=00:18:21.60 bitrate=N/A speed=13.9x    frame=26586 fps=333 q=-0.0 size=N/A time=00:18:28.85 bitrate=N/A speed=13.9x    frame=26771 fps=333 q=-0.0 size=N/A time=00:18:36.57 bitrate=N/A speed=13.9x    frame=26935 fps=333 q=-0.0 size=N/A time=00:18:43.41 bitrate=N/A speed=13.9x    frame=27097 fps=333 q=-0.0 size=N/A time=00:18:50.17 bitrate=N/A speed=13.9x    frame=27269 fps=332 q=-0.0 size=N/A time=00:18:57.34 bitrate=N/A speed=13.9x    frame=27437 fps=332 q=-0.0 size=N/A time=00:19:04.35 bitrate=N/A speed=13.9x    frame=27605 fps=332 q=-0.0 size=N/A time=00:19:11.35 bitrate=N/A speed=13.9x    frame=27785 fps=333 q=-0.0 size=N/A time=00:19:18.86 bitrate=N/A speed=13.9x    frame=27960 fps=333 q=-0.0 size=N/A time=00:19:26.16 bitrate=N/A speed=13.9x    frame=28134 fps=333 q=-0.0 size=N/A time=00:19:33.42 bitrate=N/A speed=13.9x    frame=28311 fps=333 q=-0.0 size=N/A time=00:19:40.80 bitrate=N/A speed=13.9x    frame=28483 fps=333 q=-0.0 size=N/A time=00:19:47.97 bitrate=N/A speed=13.9x    frame=28652 fps=333 q=-0.0 size=N/A time=00:19:55.02 bitrate=N/A speed=13.9x    frame=28817 fps=333 q=-0.0 size=N/A time=00:20:01.90 bitrate=N/A speed=13.9x    frame=28972 fps=332 q=-0.0 size=N/A time=00:20:08.37 bitrate=N/A speed=13.9x    frame=29126 fps=332 q=-0.0 size=N/A time=00:20:14.79 bitrate=N/A speed=13.9x    frame=29295 fps=332 q=-0.0 size=N/A time=00:20:21.84 bitrate=N/A speed=13.9x    frame=29461 fps=332 q=-0.0 size=N/A time=00:20:28.76 bitrate=N/A speed=13.9x    frame=29623 fps=332 q=-0.0 size=N/A time=00:20:35.52 bitrate=N/A speed=13.8x    frame=29789 fps=332 q=-0.0 size=N/A time=00:20:42.44 bitrate=N/A speed=13.8x    frame=29951 fps=332 q=-0.0 size=N/A time=00:20:49.20 bitrate=N/A speed=13.8x    frame=30103 fps=332 q=-0.0 size=N/A time=00:20:55.54 bitrate=N/A speed=13.8x    frame=30267 fps=331 q=-0.0 size=N/A time=00:21:02.38 bitrate=N/A speed=13.8x    frame=30449 fps=332 q=-0.0 size=N/A time=00:21:09.97 bitrate=N/A speed=13.8x    frame=30619 fps=332 q=-0.0 size=N/A time=00:21:17.06 bitrate=N/A speed=13.8x    frame=30810 fps=332 q=-0.0 size=N/A time=00:21:25.03 bitrate=N/A speed=13.8x    frame=30984 fps=332 q=-0.0 size=N/A time=00:21:32.29 bitrate=N/A speed=13.8x    frame=31155 fps=332 q=-0.0 size=N/A time=00:21:39.42 bitrate=N/A speed=13.8x    frame=31336 fps=332 q=-0.0 size=N/A time=00:21:46.97 bitrate=N/A speed=13.8x    frame=31507 fps=332 q=-0.0 size=N/A time=00:21:54.10 bitrate=N/A speed=13.8x    frame=31689 fps=332 q=-0.0 size=N/A time=00:22:01.69 bitrate=N/A speed=13.8x    frame=31853 fps=332 q=-0.0 size=N/A time=00:22:08.53 bitrate=N/A speed=13.8x    frame=32017 fps=332 q=-0.0 size=N/A time=00:22:15.37 bitrate=N/A speed=13.8x    frame=32199 fps=332 q=-0.0 size=N/A time=00:22:22.96 bitrate=N/A speed=13.8x    frame=32364 fps=332 q=-0.0 size=N/A time=00:22:29.84 bitrate=N/A speed=13.8x    frame=32549 fps=332 q=-0.0 size=N/A time=00:22:37.56 bitrate=N/A speed=13.9x    frame=32695 fps=332 q=-0.0 size=N/A time=00:22:43.65 bitrate=N/A speed=13.8x    frame=32841 fps=332 q=-0.0 size=N/A time=00:22:49.74 bitrate=N/A speed=13.8x    frame=32996 fps=331 q=-0.0 size=N/A time=00:22:56.20 bitrate=N/A speed=13.8x    frame=33154 fps=331 q=-0.0 size=N/A time=00:23:02.79 bitrate=N/A speed=13.8x    frame=33318 fps=331 q=-0.0 size=N/A time=00:23:09.63 bitrate=N/A speed=13.8x    frame=33462 fps=331 q=-0.0 size=N/A time=00:23:15.64 bitrate=N/A speed=13.8x    frame=33600 fps=331 q=-0.0 size=N/A time=00:23:21.40 bitrate=N/A speed=13.8x    frame=33735 fps=330 q=-0.0 size=N/A time=00:23:27.03 bitrate=N/A speed=13.8x    frame=33854 fps=330 q=-0.0 size=N/A time=00:23:31.99 bitrate=N/A speed=13.8x    frame=33983 fps=329 q=-0.0 size=N/A time=00:23:37.37 bitrate=N/A speed=13.7x    frame=34134 fps=329 q=-0.0 size=N/A time=00:23:43.67 bitrate=N/A speed=13.7x    frame=34284 fps=329 q=-0.0 size=N/A time=00:23:49.92 bitrate=N/A speed=13.7x    frame=34404 fps=329 q=-0.0 size=N/A time=00:23:54.93 bitrate=N/A speed=13.7x    frame=34550 fps=328 q=-0.0 size=N/A time=00:24:01.02 bitrate=N/A speed=13.7x    [Parsed_psnr_16 @ 000001b436709ac0] PSNR y:48.948484 u:50.344126 v:50.393917 average:49.372363 min:37.946425 max:inf
[out#0/null @ 000001b42926dec0] video:14903KiB audio:271276KiB subtitle:0KiB other streams:0KiB global headers:0KiB muxing overhead: unknown
frame=34683 fps=328 q=-0.0 Lsize=N/A time=00:24:06.57 bitrate=N/A speed=13.7x    
